Coordinates
version=1
nRows=11
nColumns=42
inDegrees=yes

Units are S.I. units (second, meters, Newtons, ...)
If the header above contains a line with 'inDegrees', this indicates whether rotational values are in degrees (yes) or radians (no).

endheader
time	pelvis_tilt	pelvis_list	pelvis_rotation	pelvis_tx	pelvis_ty	pelvis_tz	hip_flexion_r	hip_adduction_r	hip_rotation_r	knee_angle_r	knee_adduction_r	knee_angle_r_beta	ankle_angle_r	subtalar_angle_r	mtp_angle_r	hip_flexion_l	hip_adduction_l	hip_rotation_l	knee_angle_l	knee_adduction_l	knee_angle_l_beta	ankle_angle_l	subtalar_angle_l	mtp_angle_l	lumbar_extension	lumbar_bending	lumbar_rotation	arm_flex_r	arm_add_r	arm_rot_r	elbow_flex_r	pro_sup_r	wrist_flex_r	wrist_dev_r	arm_flex_l	arm_add_l	arm_rot_l	elbow_flex_l	pro_sup_l	wrist_flex_l	wrist_dev_l
      1.04000000	     10.06024988	      5.62657791	      8.03183023	     -1.62772462	      0.91241920	      0.01040584	     20.46301487	    -11.76990751	    -39.31584663	     38.17602334	     -7.91650343	      0.66629730	     15.53737387	     27.96380533	     -7.85590909	     -9.38677382	      9.69966516	    -19.87242435	     26.48846740	    -12.49146130	      0.46231097	     26.09433187	     20.04611938	     -7.85590909	    -34.67311858	     -9.07283080	    -12.28492952	    -19.32332051	     -9.10277191	      9.25116481	     35.98397960	     90.00000001	      0.00000000	      0.00000000	     31.45260119	    -13.86398958	      1.81568543	     40.12023853	     90.00000001	      0.00000000	      0.00000000
      1.05000000	     10.07857789	      5.60657829	      7.78749367	     -1.61951653	      0.91195987	      0.01116116	     20.23579804	    -11.47535494	    -39.43091693	     36.30196591	     -7.30245606	      0.63358883	     14.40830226	     29.41608695	     -7.84887807	    -10.02182472	      9.63022581	    -19.84514230	     26.42636516	    -12.48302307	      0.46122708	     26.06818747	     19.76190786	     -7.84887807	    -34.57379556	     -9.13993459	    -11.96075260	    -19.39799726	     -8.98701378	      8.81505066	     35.79276337	     90.00000001	      0.00000000	      0.00000000	     31.79140410	    -13.77579714	      2.25617558	     39.33204833	     90.00000001	      0.00000000	      0.00000000
      1.06000000	      9.87702500	      5.74214711	      7.54024916	     -1.61126873	      0.91094621	      0.01166659	     20.33524764	    -11.53322666	    -39.49984328	     35.00285631	     -6.62274485	      0.61091509	     14.04187660	     29.78480909	     -7.84468503	    -10.40879471	      9.80666798	    -19.93823411	     26.37242399	    -12.56544468	      0.46028563	     26.03483786	     19.65642597	     -7.84468503	    -34.25970432	     -9.35668196	    -11.73646914	    -19.47198167	     -8.93549918	      8.59780514	     35.69447382	     90.00000001	      0.00000000	      0.00000000	     31.85211796	    -13.70398085	      2.43195333	     39.01723393	     90.00000001	      0.00000000	      0.00000000
      1.07000000	      9.89177919	      5.72953004	      7.26300613	     -1.60264866	      0.91046047	      0.01250423	     20.05654794	    -11.32158775	    -39.55482764	     33.61787090	     -5.95810013	      0.58674253	     13.32139145	     30.12098137	     -7.83588895	    -11.10216189	      9.65928400	    -20.05088888	     26.28519151	    -12.37986137	      0.45876314	     25.96275693	     19.58572836	     -7.83588895	    -34.11936349	     -9.42240002	    -11.34876943	    -19.46771203	     -8.84299687	      8.18232591	     35.48629624	     90.00000001	      0.00000000	      0.00000000	     31.96586929	    -13.59113545	      2.66209018	     38.53973716	     90.00000001	      0.00000000	      0.00000000
      1.08000000	      9.70368899	      5.82406322	      7.05384599	     -1.59406865	      0.90957900	      0.01305795	     20.05621111	    -11.31964119	    -39.59096331	     32.61685658	     -5.44629257	      0.56927154	     13.03196680	     30.16023333	     -7.83221334	    -11.52956873	      9.77389867	    -20.17160201	     26.20550558	    -12.48882041	      0.45737235	     25.90094493	     19.58071825	     -7.83221334	    -33.79146215	     -9.55491217	    -11.13370862	    -19.38879902	     -8.81363546	      8.04402337	     35.31656294	     90.00000001	      0.00000000	      0.00000000	     31.90440345	    -13.53501868	      2.76313750	     38.20998925	     90.00000001	      0.00000000	      0.00000000
      1.09000000	      9.78032161	      5.71448321	      6.82290534	     -1.58514102	      0.90934129	      0.01396510	     19.62787785	    -10.98866420	    -39.61584442	     31.55694487	     -4.93900248	      0.55077259	     12.35376745	     30.09646863	     -7.82565350	    -12.28822718	      9.49181237	    -20.26050770	     26.12767682	    -12.30798210	      0.45601399	     25.73743416	     19.62050987	     -7.82565350	    -33.69205092	     -9.46960108	    -10.73607699	    -19.20059360	     -8.74451031	      7.73945099	     34.98524603	     90.00000001	      0.00000000	      0.00000000	     31.90512643	    -13.42527819	      2.87377858	     37.74773455	     90.00000001	      0.00000000	      0.00000000
      1.10000000	      9.61500264	      5.79839788	      6.63470975	     -1.57619937	      0.90850265	      0.01454341	     19.67616460	    -11.05932778	    -39.64618234	     31.32163656	     -4.70301796	      0.54666569	     12.34552176	     30.06173606	     -7.82512834	    -12.70107655	      9.53943654	    -20.26163526	     26.24208881	    -12.33599103	      0.45801085	     25.71024072	     19.63761496	     -7.82512834	    -33.36801719	     -9.54362158	    -10.51809367	    -19.06665875	     -8.78726352	      7.70283935	     34.97909517	     90.00000001	      0.00000000	      0.00000000	     31.63826167	    -13.41793796	      2.87872007	     37.63158450	     90.00000001	      0.00000000	      0.00000000
      1.11000000	      9.92465325	      5.49310217	      6.47123207	     -1.56669179	      0.90893130	      0.01564516	     18.84082674	    -10.39661923	    -39.64037434	     30.42697294	     -4.40771759	      0.53105086	     11.62913215	     29.72096424	     -7.81950045	    -13.71871723	      8.94409563	    -20.33669471	     26.17871826	    -12.09391621	      0.45690483	     25.27803774	     19.55576111	     -7.81950045	    -33.46183399	     -9.18795500	    -10.08691793	    -18.61787267	     -8.66273572	      7.41247965	     34.25014966	     90.00000001	      0.00000000	      0.00000000	     31.53421909	    -13.30704662	      2.89314413	     37.14211411	     90.00000001	      0.00000000	      0.00000000
      1.12000000	     10.31119318	      5.15174843	      6.46862330	     -1.55697796	      0.90947455	      0.01652304	     17.91609575	     -9.74294547	    -39.64354010	     29.90040617	     -4.24396830	      0.52186054	     11.26227335	     29.13325240	     -7.81028593	    -14.73813217	      8.26242259	    -20.12657098	     26.37867892	    -11.88544749	      0.46039480	     25.12804768	     19.53491312	     -7.81028593	    -33.65332717	     -8.68451282	     -9.77988048	    -18.32251157	     -8.61652422	      6.97604624	     34.16813566	     90.00000001	      0.00000000	      0.00000000	     31.21907100	    -13.23586741	      2.71604444	     37.02071113	     90.00000001	      0.00000000	      0.00000000
      1.13000000	     10.37884420	      5.08924442	      6.42654182	     -1.54732911	      0.90933915	      0.01715775	     17.63433826	     -9.58100021	    -39.63665038	     30.21964417	     -4.42614760	      0.52743229	     11.13824271	     29.07156707	     -7.80925622	    -15.30167370	      8.04341798	    -19.94902621	     26.72961222	    -11.95111003	      0.46651974	     24.87898872	     19.58141657	     -7.80925622	    -33.53263003	     -8.49186117	     -9.60073957	    -17.99494228	     -8.64208646	      6.95572205	     34.06261812	     90.00000001	      0.00000000	      0.00000000	     30.82882684	    -13.24956929	      2.69182180	     36.86031122	     90.00000001	      0.00000000	      0.00000000
      1.14000000	     10.78091664	      4.83147050	      6.39401533	     -1.53724531	      0.91003763	      0.01819820	     16.85912548	     -9.11980759	    -39.62970036	     30.54512244	     -4.53533237	      0.53311296	     10.94955026	     28.91358874	     -7.80637148	    -16.16558520	      7.32106594	    -19.87620480	     27.33232125	    -11.64254604	      0.47703900	     24.12951895	     19.45775123	     -7.80637148	    -33.73546363	     -8.09033428	     -9.30764746	    -17.46184956	     -8.56508215	      6.89676280	     33.58947918	     90.00000001	      0.00000000	      0.00000000	     30.38155491	    -13.21987279	      2.54667478	     36.79947545	     90.00000001	      0.00000000	      0.00000000
